<?xml version="1.0" encoding="UTF-8" standalone="no"?>
<svg
   fill="none"
   viewBox="0 0 283 64"
   version="1.1"
   id="svg1"
   sodipodi:docname="vercel.svg"
   inkscape:version="1.3.2 (091e20e, 2023-11-25)"
   xmlns:inkscape="http://www.inkscape.org/namespaces/inkscape"
   xmlns:sodipodi="http://sodipodi.sourceforge.net/DTD/sodipodi-0.dtd"
   xmlns="http://www.w3.org/2000/svg"
   xmlns:svg="http://www.w3.org/2000/svg">
  <defs
     id="defs1" />
  <sodipodi:namedview
     id="namedview1"
     pagecolor="#ffffff"
     bordercolor="#000000"
     borderopacity="0.25"
     inkscape:showpageshadow="2"
     inkscape:pageopacity="0.0"
     inkscape:pagecheckerboard="0"
     inkscape:deskcolor="#d1d1d1"
     inkscape:zoom="1.4945998"
     inkscape:cx="117.0882"
     inkscape:cy="58.878639"
     inkscape:window-width="1312"
     inkscape:window-height="449"
     inkscape:window-x="0"
     inkscape:window-y="25"
     inkscape:window-maximized="0"
     inkscape:current-layer="svg1" />
  <path
     fill="#000000"
     d="m 138.3237,83.576619 c -11,0 -19,7 -19,18.000001 0,11 9,18 20,18 7,0 13,-3 16,-7 l -7,-5 c -2,3 -6,4 -9,4 -5,0 -9,-3 -10,-7 h 28 v -3 c 0,-11.000001 -8,-18.000001 -19,-18.000001 z m -9,15 c 1,-4 4,-7 9,-7 5,0 8,3 9,7 z m 117,-15 c -11,0 -19,7 -19,18.000001 0,11 9,18 20,18 6,0 12,-3 16,-7 l -8,-5 c -2,3 -5,4 -8,4 -5,0 -9,-3 -11,-7 h 28 l 1,-3 c 0,-11.000001 -8,-18.000001 -19,-18.000001 z m -10,15 c 2,-4 5,-7 10,-7 5,0 8,3 9,7 z m -39,3.000001 c 0,6 4,10 10,10 4,0 7,-2 9,-5 l 8,5 c -3,5 -9,8 -17,8 -11,0 -19,-7 -19,-18 0,-11.000001 8,-18.000001 19,-18.000001 8,0 14,3 17,8 l -8,5 c -2,-3 -5,-5 -9,-5 -6,0 -10,4 -10,10.000001 z m 83,-29.000001 v 46.000001 h -9 V 72.576619 Z m -246.000002,-5 37,64.000001 H -2.6763018 Z m 92.000002,5 -27.000002,48.000001 -28,-48.000001 h 10 l 18,30.000001 17.000002,-30.000001 z m 59,12 v 10 l -3,-1 c -6,0 -10,4 -10,10.000001 v 15 h -9 V 84.576619 h 9 v 9 c 0,-5 6,-9 13,-9 z"
     id="path1" />
  <text
     xml:space="preserve"
     style="font-style:normal;font-variant:normal;font-weight:normal;font-stretch:normal;font-size:50.5139px;font-family:'Heiti SC';-inkscape-font-specification:'Heiti SC';fill:none;stroke:#010101;stroke-width:2.94441;stroke-dasharray:none"
     x="50.273415"
     y="44.124832"
     id="text1"
     transform="scale(0.84302871,1.1861992)"><tspan
       sodipodi:role="line"
       id="tspan1"
       x="50.273415"
       y="44.124832"
       style="stroke-width:2.94441">scotchtape</tspan></text>
  <ellipse
     style="fill:none;stroke:#010101;stroke-width:4.787"
     id="path2"
     cx="15.054197"
     cy="47.169819"
     rx="24.421253"
     ry="23.752178" />
</svg>
